# xmcd
#
# Track frame offsets: 
#        150
#        19414
#        34807
#        53538
#        70939
#        102147
#        116898
#        132125
#        149187
#        163893
#        175282
#        193950
#
# Disc length: 2867 seconds
#
# Revision: 3
# Processed by: cddbd v1.5.2PL0 Copyright (c) Steve Scherf et al.
# Submitted via: ExactAudioCopyFreeDBPlugin 1.0
#
DISCID=b80b310c
DTITLE=North Mississippi Allstars - Keys to the Kingdom
DYEAR=2011
DGENRE=Blues
TTITLE0=This A'Way
TTITLE1=Jumpercable Blues
TTITLE2=The Meeting
TTITLE3=How I Wish My Train Would Come
TTITLE4=Hear the Hills
TTITLE5=Stuck Inside of Mobile with the Memphis Blues Again
TTITLE6=Let it Roll
TTITLE7=Ain't No Grave
TTITLE8=Ol' Cannonball
TTITLE9=New Orleans Walkin' Dead
TTITLE10=Ain't None o' Mine
TTITLE11=Jellyrollin' All Over Heaven
EXTD=YEAR: 2011
EXTT0=
EXTT1=
EXTT2=
EXTT3=
EXTT4=
EXTT5=
EXTT6=
EXTT7=
EXTT8=
EXTT9=
EXTT10=
EXTT11=
PLAYORDER=
